<svg xmlns="http://www.w3.org/2000/svg" viewBox="0 0 360 88" role="img" aria-label="LP Crew">
  <defs>
    <linearGradient id="tidal-wave" x1="0%" y1="50%" x2="100%" y2="50%">
      <stop offset="0%" stop-color="#5ab4c0"/>
      <stop offset="55%" stop-color="#8fd6e0"/>
      <stop offset="100%" stop-color="#c8f0f5"/>
    </linearGradient>
  </defs>
  <g transform="translate(4,6) scale(0.62)">
    <path fill="#f4f1ea" d="M8 4h14v92H8V4zm0 88h52v14H8v-14z"/>
    <path fill="#f4f1ea" d="M22 4h14v44c0 18 14 28 30 28h6v14H52C32 90 22 74 22 52V4z"/>
    <path fill="url(#tidal-wave)" d="M62 18c18-2 34 8 40 26 2 6 2 12 0 18-6 20-26 32-46 28-4-1-8-3-11-5 8-4 14-10 18-18 6-12 6-26-1-38 3-4 0-9-5-11z"/>
    <path fill="url(#tidal-wave)" d="M58 52c10 6 16 16 16 28 0 8-3 15-8 20 12-6 20-18 22-32 2-14-4-28-16-36 6-2 10-8 10-14 0-2 0-4-1-6 10 8 16 22 14 36-2 18-14 34-30 42-8 4-18 6-28 4 6-6 10-14 10-24 0-10-4-18-10-24 8 2 16 0 22-4z"/>
  </g>
  <text x="108" y="38" font-family="'Cormorant Garamond', serif" font-size="34" font-weight="600" fill="#f4f1ea" letter-spacing="0.06em">LP</text>
  <text x="108" y="68" font-family="'Space Mono', monospace" font-size="22" font-weight="700" fill="url(#tidal-wave)" letter-spacing="0.28em">CREW</text>
</svg>
